<?xml version="1.0" encoding="UTF-8"?>
<!DOCTYPE svg PUBLIC "-//W3C//DTD SVG 1.1//EN" "http://www.w3.org/Graphics/SVG/1.1/DTD/svg11.dtd">
<svg xmlns="http://www.w3.org/2000/svg" version="1.1" width="800px" height="500px" style="shape-rendering:geometricPrecision; text-rendering:geometricPrecision; image-rendering:optimizeQuality; fill-rule:evenodd; clip-rule:evenodd" xmlns:xlink="http://www.w3.org/1999/xlink">
<g><path style="opacity:0.998" fill="#00099b" d="M 399.5,9.5 C 399.5,171.167 399.5,332.833 399.5,494.5C 334.5,494.5 269.5,494.5 204.5,494.5C 204.5,439.833 204.5,385.167 204.5,330.5C 216.896,306.709 229.063,282.709 241,258.5C 261.333,213.833 281.667,169.167 302,124.5C 315.471,94.8715 331.471,66.8715 350,40.5C 359.536,27.2864 371.702,17.4531 386.5,11C 390.751,9.80539 395.085,9.30539 399.5,9.5 Z"/></g>
<g><path style="opacity:0.998" fill="#0009cd" d="M 399.5,9.5 C 409.792,9.6451 418.792,13.1451 426.5,20C 438.91,32.0696 449.41,45.5696 458,60.5C 466.843,76.1853 475.177,92.1853 483,108.5C 505.392,158.952 528.059,209.285 551,259.5C 564.506,287.851 579.006,315.518 594.5,342.5C 594.5,393.167 594.5,443.833 594.5,494.5C 529.5,494.5 464.5,494.5 399.5,494.5C 399.5,332.833 399.5,171.167 399.5,9.5 Z"/></g>
<g><path style="opacity:0.993" fill="#000963" d="M 204.5,330.5 C 204.5,385.167 204.5,439.833 204.5,494.5C 139.5,494.5 74.5,494.5 9.5,494.5C 9.26057,492.533 9.59391,490.699 10.5,489C 39.3558,488.27 66.0225,480.27 90.5,465C 115.841,447.662 138.008,426.829 157,402.5C 174.099,379.292 189.933,355.292 204.5,330.5 Z"/></g>
<g><path style="opacity:0.99" fill="#0009ff" d="M 594.5,342.5 C 610.199,368.047 627.699,392.381 647,415.5C 669.238,441.422 695.738,461.589 726.5,476C 745.991,484.289 766.324,488.623 787.5,489C 789.192,490.401 789.859,492.234 789.5,494.5C 724.5,494.5 659.5,494.5 594.5,494.5C 594.5,443.833 594.5,393.167 594.5,342.5 Z"/></g>
</svg>
